<svg id="Layer_1" data-name="Layer 1" xmlns="http://www.w3.org/2000/svg" xmlns:xlink="http://www.w3.org/1999/xlink" viewBox="0 0 373.42 81.29"><defs><style>.cls-1{fill:none;}.cls-3{clip-path:url(#clip-path);}.cls-4,.cls-5{fill:#fff;}.cls-4{fill-rule:evenodd;}</style><clipPath id="clip-path" transform="translate(-27.82 -20.99)"><rect class="cls-1" width="419.41" height="121.98"/></clipPath></defs><title>mini_logo</title><g class="cls-2"><g class="cls-3"><g class="cls-2"><g class="cls-3"><path class="cls-4" d="M90.35,37.62c-15.84-3.18-37-1.32-49.6,11.59C35.42,54.69,31.34,60.62,30.21,69c-0.39,2.91-2.4-.32-2.4-5.77,0-2.19,1.84-7.39,3-10.14,4.53-10.6,22.27-24.41,59.52-15.47" transform="translate(-27.82 -20.99)"/><path class="cls-4" d="M88.31,101.22c4.22-.74,5-4.48,3.19-5.63a4,4,0,0,0-2.7-.31C54.25,98.83,35.12,85.2,30.77,72c-0.47-1.44-2.18-7-2.88-9.92C27,86.91,54,107.21,88.31,101.22" transform="translate(-27.82 -20.99)"/><path class="cls-4" d="M82.77,29.7c-11.51-2.39-49.19,3-53.22,21.87a22.19,22.19,0,0,0-.93,5.73c0.09-1.37.16-2.43,0.23-3.33,0.2-1.78.45-3.79,0.77-5.55,0.08-.43.18-0.9,0.29-1.42h0l0.44-1.78v0h0c0.06-.21.11-0.41,0.18-0.62a31,31,0,0,1,3.33-6.94c2-3.33,16.51-14.89,48.89-7.92" transform="translate(-27.82 -20.99)"/><path class="cls-4" d="M29.89,46.52c-0.4,2.21-.65,3.61-0.83,4.86-0.09.67-.16,1.34-0.23,2a17.79,17.79,0,0,0-.21,3.55C31.13,88.57,83,95.35,112.81,83.38c4.53-1.82,3.85-7.72,1.24-8.18a3.85,3.85,0,0,0-2,.41C72.58,90.18,28.22,78.48,29.62,51.28a32.82,32.82,0,0,1,.69-6.56Z" transform="translate(-27.82 -20.99)"/><path class="cls-4" d="M34.55,34.33c1-1.57,2.46-3.59,3.56-5.1,0.78-1,1.44-1.76,2.19-2.54C49,17.57,64,21.58,71.08,23.86c-8.92-1.13-25.39-4-36.53,10.48" transform="translate(-27.82 -20.99)"/><path class="cls-4" d="M37.46,30.05c-0.94,1.34-2.15,3.08-3.09,4.55-0.38.63-.76,1.3-1.13,2-5.56,10.86-1.5,23.19,12.1,31.59C64.45,80,95.2,79.57,114,67.23a36.54,36.54,0,0,0,8.73-7.8c2.16-3.55-.89-7.95-2.59-7.87a2.34,2.34,0,0,0-1.3.63,33.33,33.33,0,0,1-8,7.12c-17.16,11.25-45.21,11.63-62.66.85-14.39-8.89-17.07-22.6-7.93-33.45l-0.09.1c-1,1.09-2,2.24-2.74,3.25" transform="translate(-27.82 -20.99)"/><path class="cls-4" d="M173.25,71.93a14.78,14.78,0,0,1-10.41,4.29c-9,0-15.13-7.44-15.13-16.33s6.18-16.4,15.13-16.4a14.78,14.78,0,0,1,10.41,4.29l2-2.77s-4-4.92-12.49-4.92c-11.1,0-18.79,8.58-18.79,19.8s7.69,19.74,18.79,19.74c8.45,0,12.49-5,12.49-5Zm22.54-13.24L194.66,61h-0.19l-1.07-2.27L182.86,40.9h-4.22L192.7,64.17V78.74h3.59V64.17L210.36,40.9H206.2Zm32.5,20.05h6.31L250.11,40.9h-6.56L231.45,71.55l-12-30.65h-6.62Zm51.12-21.82H261.83V46.45h20.68V40.9H255.58V78.74h26.93V73.19H261.83v-11h17.59v-5.3Zm10.89-16V78.74h6.24V66.25h9l9,12.49h6.87V77.85l-9.08-12.3V65.24a11.79,11.79,0,0,0,8-11.67c0-7.88-5.61-12.67-14.5-12.67H290.31ZM313.9,53.64c0,4.79-3.34,7.06-7.95,7.06h-9.4V46.45h9c5,0,8.32,2.33,8.32,7.19m12.4,21.25s4.6,4.73,14.31,4.73c9.46,0,14.06-5,14.06-11.48,0-5.86-3.66-9.21-12.8-11.79-6.37-1.89-8.39-3.15-8.39-5.74,0-3,2.71-4.73,7-4.73A15.63,15.63,0,0,1,350.26,49l3.41-5.11s-3.78-3.85-13.18-3.85c-9,0-13.87,4.29-13.87,10.78,0,5.93,4.1,8.77,12.55,11.29,6.81,2.08,8.58,3.53,8.58,6.43,0,3.09-2.21,5.23-7.31,5.23a18.25,18.25,0,0,1-10.72-3.66Zm59.64-18H368.34V46.45H389V40.9H362.1V78.74H389V73.19H368.34v-11h17.59v-5.3Z" transform="translate(-27.82 -20.99)"/><polygon class="cls-5" points="362.62 20.21 367.23 20.21 367.23 21.43 365.69 21.43 365.69 25.12 364.17 25.12 364.17 21.43 362.62 21.43 362.62 20.21"/><polygon class="cls-5" points="367.9 20.21 369.89 20.21 370.66 23.2 371.43 20.21 373.42 20.21 373.42 25.12 372.18 25.12 372.18 21.38 371.22 25.12 370.1 25.12 369.14 21.38 369.14 25.12 367.9 25.12 367.9 20.21"/></g></g></g></g></svg>
