<?xml version="1.0" encoding="utf-8"?>
<!-- Generator: Adobe Illustrator 19.2.0, SVG Export Plug-In . SVG Version: 6.00 Build 0)  -->
<svg version="1.1" id="Layer_1" xmlns="http://www.w3.org/2000/svg" xmlns:xlink="http://www.w3.org/1999/xlink" x="0px" y="0px"
	 viewBox="0 0 373.4 81.3" style="enable-background:new 0 0 373.4 81.3;" xml:space="preserve">
<style type="text/css">
	.st0{opacity:0.78;clip-path:url(#SVGID_2_);}
	.st1{opacity:0.78;}
	.st2{clip-path:url(#SVGID_4_);}
	.st3{fill:#FFFFFF;}
</style>
<title>mini_logo</title>
<g>
	<g>
		<defs>
			<rect id="SVGID_1_" x="-27.8" y="-21" width="419.4" height="122"/>
		</defs>
		<clipPath id="SVGID_2_">
			<use xlink:href="#SVGID_1_"  style="overflow:visible;"/>
		</clipPath>
		<g class="st0">
			<g>
				<g class="st1">
					<defs>
						<rect id="SVGID_3_" x="-27.8" y="-21" class="st1" width="419.4" height="122"/>
					</defs>
					<clipPath id="SVGID_4_">
						<use xlink:href="#SVGID_3_"  style="overflow:visible;"/>
					</clipPath>
					<g class="st2">
						<path class="st3" d="M62.5,16.6c-15.8-3.2-37-1.3-49.6,11.6C7.6,33.7,3.5,39.6,2.4,48C2,50.9,0,47.7,0,42.2
							c0-2.2,1.8-7.4,3-10.1C7.5,21.5,25.3,7.7,62.5,16.6"/>
						<path class="st3" d="M60.5,80.2c4.2-0.7,5-4.5,3.2-5.6c-0.8-0.4-1.8-0.5-2.7-0.3C26.4,77.8,7.3,64.2,3,51
							c-0.5-1.4-2.2-7-2.9-9.9C-0.8,65.9,26.2,86.2,60.5,80.2"/>
						<path class="st3" d="M54.9,8.7c-11.5-2.4-49.2,3-53.2,21.9c-0.6,1.9-0.9,3.8-0.9,5.7C0.9,34.9,1,33.9,1,33
							c0.2-1.8,0.5-3.8,0.8-5.6C1.9,27,2,26.5,2.1,26l0,0l0.4-1.8l0,0l0,0c0.1-0.2,0.1-0.4,0.2-0.6c0.8-2.4,1.9-4.8,3.3-6.9
							C8,13.3,22.5,1.8,54.9,8.7"/>
						<path class="st3" d="M2.1,25.5c-0.4,2.2-0.6,3.6-0.8,4.9c-0.1,0.7-0.2,1.3-0.2,2c-0.2,1.2-0.3,2.4-0.2,3.6
							C3.3,67.6,55.2,74.4,85,62.4c4.5-1.8,3.8-7.7,1.2-8.2c-0.7,0-1.4,0.1-2,0.4C44.8,69.2,0.4,57.5,1.8,30.3
							c0-2.2,0.2-4.4,0.7-6.6L2.1,25.5z"/>
						<path class="st3" d="M6.7,13.3c1-1.6,2.5-3.6,3.6-5.1c0.8-1,1.4-1.8,2.2-2.5c8.7-9.1,23.7-5.1,30.8-2.8
							C34.3,1.7,17.9-1.1,6.7,13.3"/>
						<path class="st3" d="M9.6,9.1c-0.9,1.3-2.2,3.1-3.1,4.5c-0.4,0.6-0.8,1.3-1.1,2c-5.6,10.9-1.5,23.2,12.1,31.6
							c19.1,11.8,49.9,11.4,68.7-1c3.3-2.1,6.3-4.7,8.7-7.8c2.2-3.5-0.9-7.9-2.6-7.9c-0.5,0.1-0.9,0.3-1.3,0.6c-2.3,2.8-5,5.2-8,7.1
							C65.9,49.6,37.8,50,20.4,39.2C6,30.3,3.3,16.6,12.4,5.7l-0.1,0.1C11.3,6.9,10.3,8.1,9.6,9.1"/>
						<path class="st3" d="M145.4,50.9c-2.8,2.7-6.5,4.3-10.4,4.3c-9,0-15.1-7.4-15.1-16.3s6.2-16.4,15.1-16.4
							c3.9,0,7.6,1.5,10.4,4.3l2-2.8c0,0-4-4.9-12.5-4.9c-11.1,0-18.8,8.6-18.8,19.8s7.7,19.7,18.8,19.7c8.5,0,12.5-5,12.5-5
							L145.4,50.9z M168,37.7l-1.1,2.3h-0.2l-1.1-2.3L155,19.9h-4.2l14.1,23.3v14.6h3.6V43.2l14.1-23.3h-4.2L168,37.7z M200.5,57.8
							h6.3l15.5-37.8h-6.6l-12.1,30.7l-12-30.7H185L200.5,57.8z M251.6,35.9H234V25.5h20.7v-5.5h-26.9v37.8h26.9v-5.5H234v-11h17.6
							L251.6,35.9L251.6,35.9z M262.5,19.9v37.8h6.2V45.3h9l9,12.5h6.9v-0.9l-9.1-12.3v-0.3c5-1.7,8.2-6.4,8-11.7
							c0-7.9-5.6-12.7-14.5-12.7L262.5,19.9L262.5,19.9z M286.1,32.7c0,4.8-3.3,7.1-8,7.1h-9.4V25.5h9
							C282.7,25.5,286,27.8,286.1,32.7 M298.4,53.9c0,0,4.6,4.7,14.3,4.7c9.5,0,14.1-5,14.1-11.5c0-5.9-3.7-9.2-12.8-11.8
							c-6.4-1.9-8.4-3.2-8.4-5.7c0-3,2.7-4.7,7-4.7c3.5-0.1,7,1,9.8,3.1l3.4-5.1c0,0-3.8-3.8-13.2-3.8c-9,0-13.9,4.3-13.9,10.8
							c0,5.9,4.1,8.8,12.5,11.3c6.8,2.1,8.6,3.5,8.6,6.4c0,3.1-2.2,5.2-7.3,5.2c-3.9-0.1-7.6-1.3-10.7-3.7L298.4,53.9z M358.1,35.9
							h-17.6V25.5h20.7v-5.5h-26.9v37.8h26.9v-5.5h-20.7v-11h17.6L358.1,35.9L358.1,35.9z"/>
						<polygon class="st3" points="362.6,20.2 367.2,20.2 367.2,21.4 365.7,21.4 365.7,25.1 364.2,25.1 364.2,21.4 362.6,21.4 
													"/>
						<polygon class="st3" points="367.9,20.2 369.9,20.2 370.7,23.2 371.4,20.2 373.4,20.2 373.4,25.1 372.2,25.1 372.2,21.4 
							371.2,25.1 370.1,25.1 369.1,21.4 369.1,25.1 367.9,25.1 						"/>
					</g>
				</g>
			</g>
		</g>
	</g>
</g>
</svg>
